<svg version="1.1" id="Layer_1" xmlns="http://www.w3.org/2000/svg" xmlns:xlink="http://www.w3.org/1999/xlink" x="0px" y="0px" viewBox="0 0 80 115" style="enable-background:new 0 0 80 115;" xml:space="preserve"><g><path fill="#CC3333" d="M40,0C17.9,0,0,17.7,0,39.4S40,115,40,115s40-53.9,40-75.6S62.1,0,40,0z M40,52.5c-7,0-12.6-5.6-12.6-12.4 S33,27.7,40,27.7s12.6,5.6,12.6,12.4C52.6,46.9,47,52.5,40,52.5z"></path><path fill="rgba(0, 0, 0, 0.3)" d="M40,19.2c-11.7,0-21.2,9.3-21.2,20.8S28.3,60.8,40,60.8S61.2,51.5,61.2,40S51.7,19.2,40,19.2z M40,52.5 c-7,0-12.6-5.6-12.6-12.4S33,27.7,40,27.7s12.6,5.6,12.6,12.4C52.6,46.9,47,52.5,40,52.5z"></path></g></svg>